<?xml version="1.0" encoding="UTF-8" standalone="no"?>
<svg
   width="860"
   height="180"
   viewBox="0 0 860 180"
   role="img"
   aria-labelledby="title"
   version="1.1"
   id="svg7"
   sodipodi:docname="my-restaurant-score-horizontal-compact.svg"
   xmlns:inkscape="http://www.inkscape.org/namespaces/inkscape"
   xmlns:sodipodi="http://sodipodi.sourceforge.net/DTD/sodipodi-0.dtd"
   xmlns="http://www.w3.org/2000/svg"
   xmlns:svg="http://www.w3.org/2000/svg">
  <defs
     id="defs7" />
  <sodipodi:namedview
     id="namedview7"
     pagecolor="#ffffff"
     bordercolor="#000000"
     borderopacity="0.25"
     inkscape:showpageshadow="2"
     inkscape:pageopacity="0.0"
     inkscape:pagecheckerboard="0"
     inkscape:deskcolor="#d1d1d1" />
  <title
     id="title">My Restaurant Score logo</title>
  <g
     transform="translate(28,32.0) scale(0.453125)"
     id="g5">
    <path
       d="M128 228 L83 183 A78 78 0 1 1 173 183 Z"
       fill="#0F172A"
       id="path1" />
    <circle
       cx="128"
       cy="118"
       r="57"
       fill="#FFFFFF"
       id="circle1" />
    <path
       d="M128.000,39.000 A79,79 0 0 1 206.567,109.742"
       fill="none"
       stroke="#F97316"
       stroke-width="28"
       stroke-linecap="butt"
       id="path2" />
    <path
       d="M206.988,116.621 A79,79 0 0 1 195.716,158.688"
       fill="none"
       stroke="#CBD5E1"
       stroke-width="28"
       stroke-linecap="butt"
       id="path3" />
    <path
       d="M191.912,164.435 A79,79 0 1 1 126.621,39.012"
       fill="none"
       stroke="#0F172A"
       stroke-width="28"
       stroke-linecap="butt"
       id="path4" />
    <circle
       cx="128"
       cy="118"
       r="9"
       fill="#0F172A"
       id="circle4" />
    <path
       d="M128 118 L163 76 L141 129 Z"
       fill="#0F172A"
       id="path5" />
  </g>
  <path
     d="m 181.39844,116 h 10.37109 V 97.191406 c 0,-3.251953 -0.26367,-10.107422 -0.38086,-15.849609 1.49414,6.152344 3.28125,12.626953 4.30664,15.849609 L 201.99414,116 h 8.64258 l 6.21094,-18.808594 c 1.05468,-3.339844 2.90039,-10.107422 4.33593,-16.347656 -0.11718,5.888672 -0.38086,13.037109 -0.38086,16.347656 V 116 h 10.40039 V 72.347656 h -16.14257 l -5.47852,16.992188 c -0.87891,2.988281 -2.22656,9.257812 -3.22266,14.472656 -1.02539,-5.214844 -2.37304,-11.484375 -3.28125,-14.472656 l -5.5664,-16.992188 h -16.11328 z m 57.21679,11.48438 c 1.52344,0.58593 3.98438,0.99609 6.50391,0.99609 7.35352,0 10.92773,-3.7207 12.91992,-9.02344 L 271.7793,83.246094 h -10.66407 l -5.24414,16.02539 c -0.8789,2.783206 -1.61132,5.566406 -2.28515,8.525396 -0.55664,-2.95899 -1.08399,-5.7129 -1.9336,-8.525396 l -4.89257,-16.02539 h -10.78125 l 12.21679,32.812496 0.0293,1.37696 c 0.14648,2.66601 -2.34375,3.92578 -6.03516,2.92968 l -1.28906,-0.35156 z"
     id="text5"
     style="font-weight:800;font-size:60px;font-family:Inter, Arial, sans-serif;fill:#0f172a"
     aria-label="My" />
  <path
     d="m 267.39844,116 h 10.34179 v -15.0293 h 5.625 L 291.36328,116 h 11.33789 l -9.11133,-16.669922 c 4.83399,-2.167969 7.58789,-6.445312 7.58789,-12.480469 0,-8.90625 -6.06445,-14.501953 -15.9082,-14.501953 H 267.39844 Z M 277.74023,92.796875 V 80.726562 h 5.33204 c 4.86328,0 7.38281,2.050782 7.38281,6.123047 0,4.072266 -2.51953,5.947266 -7.35352,5.947266 z m 43.97461,23.818355 c 7.93946,0 13.30078,-3.60351 14.94141,-9.2871 l -9.11133,-1.49415 c -0.82031,2.19727 -2.90039,3.36915 -5.6543,3.36915 -3.86718,0 -6.4746,-2.34375 -6.65039,-7.08985 H 337.125 v -2.578124 c 0,-10.810547 -6.5918,-16.699219 -15.79102,-16.699219 -9.84375,0 -16.14257,6.796875 -16.14257,16.904297 0,10.488286 6.24023,16.874996 16.52343,16.874996 z m -6.41601,-20.449214 c 0.38086,-3.603516 2.51953,-5.917969 6.12304,-5.917969 3.57422,0 5.59571,2.197265 6.00586,5.917969 z m 40.98633,20.449214 c 8.93554,0 15.35156,-4.33593 15.35156,-11.07421 0,-4.7461 -3.13477,-7.617192 -9.63867,-8.847661 l -6.26953,-1.171875 c -2.8125,-0.55664 -3.69141,-1.582031 -3.69141,-2.90039 0,-1.669922 1.93359,-2.753907 4.39453,-2.753907 2.75391,0 4.62891,1.289063 5.24414,3.486329 l 9.02344,-1.435547 c -1.14258,-5.625 -6.24024,-9.082032 -14.44336,-9.082032 -8.78906,0 -14.41406,3.867188 -14.41406,10.400391 0,5.009766 3.22265,8.203122 9.69726,9.433592 l 5.71289,1.11328 c 2.72461,0.55664 4.01367,1.40625 4.01367,2.92969 0,1.66992 -1.72851,2.72461 -4.5996,2.72461 -3.48633,0 -5.33204,-1.46484 -6.15235,-4.30664 l -9.49219,1.49414 c 1.14258,6.26953 6.88477,9.99023 15.26368,9.99023 z m 38.26171,-33.369136 h -5.88867 v -7.792969 h -10.22461 v 7.792969 h -4.33593 v 7.58789 h 4.33593 v 16.054686 c 0,6.24024 3.66211,9.58008 10.60547,9.58008 1.9336,0 4.10156,-0.20508 6.38672,-0.84961 l -1.31836,-7.44141 c -0.55664,0.14649 -2.13867,0.35157 -2.8418,0.35157 -1.8457,0 -2.60742,-0.82032 -2.60742,-2.54883 V 90.833984 h 5.88867 z m 14.70704,33.339846 c 4.54101,0 7.70507,-1.81641 9.49218,-5.18555 h 0.26368 V 116 h 9.60937 V 93.763672 c 0,-7.03125 -6.41602,-10.927735 -14.56055,-10.927735 -8.20312,0 -13.35937,3.837891 -14.64843,9.433594 l 9.25781,1.201172 c 0.55664,-2.050781 2.46094,-3.369141 5.30273,-3.369141 2.78321,0 4.45313,1.289063 4.45313,3.544922 v 0.117188 c 0,2.021484 -2.22656,2.43164 -7.76367,2.90039 -6.6211,0.556641 -12.1875,2.988282 -12.1875,10.253908 0,6.47461 4.48242,9.66797 10.78125,9.66797 z m 3.10546,-6.76758 c -2.46093,0 -4.21875,-1.17188 -4.21875,-3.36914 0,-2.16797 1.69922,-3.45703 4.7168,-3.89649 1.9043,-0.29296 4.48242,-0.73242 5.6543,-1.34765 v 3.13476 c 0,3.22266 -2.72461,5.47852 -6.15235,5.47852 z m 34.39454,6.5918 c 5.27343,0 8.49609,-2.92969 10.2539,-7.5 L 457.1543,116 h 9.60937 V 83.246094 H 456.53906 V 101.9375 c 0,3.80859 -2.25586,6.06445 -5.5957,6.06445 -3.33984,0 -5.33203,-2.19726 -5.33203,-5.88867 V 83.246094 h -10.22461 v 20.859376 c 0,7.41211 4.48242,12.30469 11.36719,12.30469 z M 473.50195,116 h 10.22461 V 98.128906 c 0,-3.925781 2.78321,-6.5625 6.5625,-6.5625 1.23047,0 3.07617,0.205078 4.04297,0.527344 V 83.1875 c -0.84961,-0.205078 -1.93359,-0.351563 -2.90039,-0.351563 -3.60352,0 -6.47461,2.080079 -7.64648,6.386719 h -0.35157 v -5.976562 h -9.93164 z m 33.19336,0.58594 c 4.54102,0 7.70508,-1.81641 9.49219,-5.18555 h 0.26367 V 116 h 9.60938 V 93.763672 c 0,-7.03125 -6.41602,-10.927735 -14.56055,-10.927735 -8.20313,0 -13.35938,3.837891 -14.64844,9.433594 l 9.25781,1.201172 c 0.55665,-2.050781 2.46094,-3.369141 5.30274,-3.369141 2.7832,0 4.45312,1.289063 4.45312,3.544922 v 0.117188 c 0,2.021484 -2.22656,2.43164 -7.76367,2.90039 -6.62109,0.556641 -12.1875,2.988282 -12.1875,10.253908 0,6.47461 4.48242,9.66797 10.78125,9.66797 z m 3.10547,-6.76758 c -2.46094,0 -4.21875,-1.17188 -4.21875,-3.36914 0,-2.16797 1.69922,-3.45703 4.7168,-3.89649 1.90429,-0.29296 4.48242,-0.73242 5.65429,-1.34765 v 3.13476 c 0,3.22266 -2.7246,5.47852 -6.15234,5.47852 z m 33.25195,-12.509766 c 0,-3.808594 2.25586,-6.064453 5.59571,-6.064453 3.33984,0 5.33203,2.197265 5.33203,5.888671 V 116 h 10.22461 V 95.140625 c 0,-7.412109 -4.48242,-12.304688 -11.33789,-12.304688 -5.30274,0 -8.52539,2.929688 -10.25391,7.470704 l -0.17578,-7.060547 h -9.60938 V 116 h 10.22461 z m 45.55664,-14.0625 h -5.88867 v -7.792969 h -10.22461 v 7.792969 h -4.33593 v 7.58789 h 4.33593 v 16.054686 c 0,6.24024 3.66211,9.58008 10.60547,9.58008 1.9336,0 4.10156,-0.20508 6.38672,-0.84961 l -1.31836,-7.44141 c -0.55664,0.14649 -2.13867,0.35157 -2.8418,0.35157 -1.8457,0 -2.60742,-0.82032 -2.60742,-2.54883 V 90.833984 h 5.88867 z"
     id="text6"
     style="font-weight:800;font-size:60px;font-family:Inter, Arial, sans-serif;fill:#f97316"
     aria-label="Restaurant" />
  <path
     d="m 649.24414,116.58594 c 10.81055,0 17.25586,-4.95117 17.25586,-13.24219 0,-6.972656 -4.89258,-11.191406 -13.33008,-13.037109 l -3.7793,-0.878907 c -3.89648,-0.878906 -6.44531,-2.167968 -6.44531,-4.863281 0,-2.431641 2.13867,-4.21875 6.26953,-4.21875 4.16016,0 6.47461,1.845703 6.76758,5.009766 h 9.93164 c -0.11719,-8.085938 -6.5625,-13.59375 -16.66992,-13.59375 -9.90234,0 -16.99219,5.419922 -16.99219,13.505859 0,6.5625 4.57032,10.341797 12.09961,12.070313 l 4.62891,1.083984 c 4.77539,1.083984 7.06055,2.402345 7.06055,4.892575 0,2.78321 -2.63672,4.6875 -6.91407,4.6875 -4.71679,0 -7.85156,-2.16797 -8.08593,-6.41601 h -9.93165 c 0.17579,10.07812 7.20704,15 18.13477,15 z m 37.93945,0.0293 c 8.4375,0 14.0918,-4.54101 15.11719,-11.86523 l -9.43359,-1.52344 c -0.61524,3.54492 -2.54883,5.56641 -5.56641,5.56641 -3.92578,0 -6.15234,-3.48633 -6.15234,-9.111329 0,-5.654297 2.22656,-9.023438 6.15234,-9.023438 3.01758,0 4.89258,1.962891 5.53711,5.390625 l 9.43359,-1.582031 c -1.02539,-7.119141 -6.73828,-11.63086 -15.08789,-11.63086 -10.2539,0 -16.46484,6.796875 -16.46484,16.904297 0,10.078126 6.21094,16.874996 16.46484,16.874996 z m 35.71289,0 c 10.22461,0 16.43555,-6.79687 16.43555,-16.874996 0,-10.107422 -6.21094,-16.904297 -16.43555,-16.904297 -10.2539,0 -16.46484,6.796875 -16.46484,16.904297 0,10.078126 6.21094,16.874996 16.46484,16.874996 z m 0,-7.82226 c -3.92578,0 -6.03515,-3.66211 -6.03515,-9.111329 0,-5.478516 2.10937,-9.023438 6.03515,-9.023438 3.92579,0 6.03516,3.544922 6.03516,9.023438 0,5.449219 -2.10937,9.111329 -6.03516,9.111329 z M 744.83984,116 h 10.22461 V 98.128906 c 0,-3.925781 2.78321,-6.5625 6.5625,-6.5625 1.23047,0 3.07617,0.205078 4.04297,0.527344 V 83.1875 c -0.84961,-0.205078 -1.93359,-0.351563 -2.90039,-0.351563 -3.60351,0 -6.47461,2.080079 -7.64648,6.386719 h -0.35157 v -5.976562 h -9.93164 z m 38.78907,0.61523 c 7.93945,0 13.30078,-3.60351 14.9414,-9.2871 l -9.11133,-1.49415 c -0.82031,2.19727 -2.90039,3.36915 -5.65429,3.36915 -3.86719,0 -6.47461,-2.34375 -6.65039,-7.08985 h 21.88476 v -2.578124 c 0,-10.810547 -6.59179,-16.699219 -15.79101,-16.699219 -9.84375,0 -16.14258,6.796875 -16.14258,16.904297 0,10.488286 6.24023,16.874996 16.52344,16.874996 z m -6.41602,-20.449214 c 0.38086,-3.603516 2.51953,-5.917969 6.12305,-5.917969 3.57422,0 5.5957,2.197265 6.00586,5.917969 z"
     id="text7"
     style="font-weight:800;font-size:60px;font-family:Inter, Arial, sans-serif;fill:#0f172a"
     aria-label="Score" />
</svg>
