<?xml version="1.0" encoding="UTF-8" standalone="no"?>
<svg
   width="1100"
   height="220"
   viewBox="0 0 1100 220"
   role="img"
   aria-labelledby="title"
   version="1.1"
   id="svg7"
   sodipodi:docname="my-restaurant-score-horizontal.svg"
   xmlns:inkscape="http://www.inkscape.org/namespaces/inkscape"
   xmlns:sodipodi="http://sodipodi.sourceforge.net/DTD/sodipodi-0.dtd"
   xmlns="http://www.w3.org/2000/svg"
   xmlns:svg="http://www.w3.org/2000/svg">
  <defs
     id="defs7" />
  <sodipodi:namedview
     id="namedview7"
     pagecolor="#ffffff"
     bordercolor="#000000"
     borderopacity="0.25"
     inkscape:showpageshadow="2"
     inkscape:pageopacity="0.0"
     inkscape:pagecheckerboard="0"
     inkscape:deskcolor="#d1d1d1" />
  <title
     id="title">My Restaurant Score logo</title>
  <g
     transform="translate(28,35.0) scale(0.5859375)"
     id="g5">
    <path
       d="M128 228 L83 183 A78 78 0 1 1 173 183 Z"
       fill="#0F172A"
       id="path1" />
    <circle
       cx="128"
       cy="118"
       r="57"
       fill="#FFFFFF"
       id="circle1" />
    <path
       d="M128.000,39.000 A79,79 0 0 1 206.567,109.742"
       fill="none"
       stroke="#F97316"
       stroke-width="28"
       stroke-linecap="butt"
       id="path2" />
    <path
       d="M206.988,116.621 A79,79 0 0 1 195.716,158.688"
       fill="none"
       stroke="#CBD5E1"
       stroke-width="28"
       stroke-linecap="butt"
       id="path3" />
    <path
       d="M191.912,164.435 A79,79 0 1 1 126.621,39.012"
       fill="none"
       stroke="#0F172A"
       stroke-width="28"
       stroke-linecap="butt"
       id="path4" />
    <circle
       cx="128"
       cy="118"
       r="9"
       fill="#0F172A"
       id="circle4" />
    <path
       d="M128 118 L163 76 L141 129 Z"
       fill="#0F172A"
       id="path5" />
  </g>
  <path
     d="m 216.64453,142 h 14.17383 v -25.70508 c 0,-4.44433 -0.36035,-13.81347 -0.52051,-21.661131 2.04199,8.408201 4.48438,17.256841 5.88574,21.661131 L 244.79199,142 h 11.81153 l 8.48828,-25.70508 c 1.4414,-4.56445 3.96386,-13.81347 5.92578,-22.341795 -0.16016,8.047855 -0.52051,17.817385 -0.52051,22.341795 V 142 h 14.21387 V 82.341797 h -22.06153 l -7.4873,23.222653 c -1.20117,4.08399 -3.04297,12.65235 -4.4043,19.7793 -1.40136,-7.12695 -3.24316,-15.69531 -4.48437,-19.7793 l -7.60742,-23.222653 h -22.02149 z m 78.19629,15.69531 c 2.08203,0.80078 5.44531,1.36133 8.88867,1.36133 10.04981,0 14.93457,-5.08496 17.65723,-12.33203 l 18.77832,-49.488282 h -14.57422 l -7.16699,21.901372 c -1.20117,3.80371 -2.20215,7.60742 -3.12305,11.65136 -0.76074,-4.04394 -1.48144,-7.80761 -2.64258,-11.65136 L 305.97168,97.236328 H 291.2373 l 16.69629,44.843752 0.04,1.88183 c 0.2002,3.64356 -3.20312,5.36524 -8.24804,4.00391 l -1.76172,-0.48047 z"
     id="text5"
     style="font-weight:800;font-size:82px;font-family:Inter, Arial, sans-serif;fill:#0f172a"
     aria-label="My" />
  <path
     d="m 334.64453,142 h 14.13379 v -20.54004 h 7.6875 L 367.39648,142 h 15.49512 l -12.45215,-22.78223 c 6.60645,-2.96289 10.37012,-8.80859 10.37012,-17.05664 0,-12.171872 -8.28809,-19.819333 -21.74121,-19.819333 h -24.42383 z m 14.13379,-31.71094 V 93.792969 h 7.28711 c 6.64648,0 10.08984,2.802734 10.08984,8.368161 0,5.56543 -3.44336,8.12793 -10.0498,8.12793 z m 60.09863,32.55176 c 10.85059,0 18.17774,-4.9248 20.41992,-12.69238 l -12.45214,-2.04199 c -1.1211,3.00292 -3.96387,4.60449 -7.72754,4.60449 -5.28516,0 -8.84864,-3.20313 -9.08887,-9.68946 h 29.90918 v -3.52343 c 0,-14.77442 -9.00879,-22.822269 -21.58105,-22.822269 -13.45313,0 -22.06153,9.289059 -22.06153,23.102539 0,14.33398 8.52832,23.0625 22.58203,23.0625 z m -8.76855,-27.94727 c 0.52051,-4.9248 3.44336,-8.08789 8.36816,-8.08789 4.88477,0 7.64746,3.00293 8.20801,8.08789 z m 56.01465,27.94727 c 12.21191,0 20.98047,-5.92578 20.98047,-15.13477 0,-6.48632 -4.28418,-10.41015 -13.17286,-12.09179 l -8.56836,-1.60156 c -3.84375,-0.76075 -5.04492,-2.16211 -5.04492,-3.96387 0,-2.28223 2.64258,-3.76367 6.00586,-3.76367 3.76367,0 6.32617,1.76172 7.16699,4.76464 l 12.33204,-1.96191 c -1.56153,-7.6875 -8.52832,-12.412109 -19.73926,-12.412109 -12.01172,0 -19.69922,5.285159 -19.69922,14.213869 0,6.84668 4.4043,11.21094 13.25293,12.89258 l 7.80762,1.52148 c 3.72363,0.76074 5.48535,1.92188 5.48535,4.00391 0,2.28222 -2.36231,3.72363 -6.28614,3.72363 -4.76464,0 -7.2871,-2.00195 -8.4082,-5.88574 l -12.97265,2.04199 c 1.56152,8.56836 9.40917,13.65332 20.86035,13.65332 z m 52.29101,-45.604492 h -8.04785 V 86.585937 h -13.97363 v 10.650391 h -5.92578 v 10.370122 h 5.92578 v 21.9414 c 0,8.52832 5.00488,13.09277 14.49414,13.09277 2.64258,0 5.60547,-0.28027 8.72851,-1.16113 l -1.80175,-10.16992 c -0.76075,0.2002 -2.92286,0.48047 -3.88379,0.48047 -2.52246,0 -3.56348,-1.12109 -3.56348,-3.4834 v -20.70019 h 8.04785 z m 20.09961,45.564452 c 6.20606,0 10.53028,-2.48242 12.97266,-7.08691 h 0.36035 V 142 h 13.13281 v -30.38965 c 0,-9.60937 -8.76855,-14.934569 -19.89941,-14.934569 -11.21094,0 -18.25781,5.245119 -20.01953,12.892579 l 12.65234,1.6416 c 0.76074,-2.80273 3.36328,-4.60449 7.24707,-4.60449 3.80371,0 6.08594,1.76172 6.08594,4.84473 v 0.16015 c 0,2.7627 -3.04297,3.32324 -10.61035,3.96387 -9.04883,0.76074 -16.65625,4.08398 -16.65625,14.01367 0,8.84863 6.12597,13.21289 14.73437,13.21289 z m 4.24414,-9.24902 c -3.36328,0 -5.76562,-1.60156 -5.76562,-4.60449 0,-2.96289 2.32226,-4.72461 6.44629,-5.3252 2.60254,-0.40039 6.12597,-1.00098 7.72754,-1.8418 v 4.28418 c 0,4.4043 -3.72364,7.48731 -8.40821,7.48731 z m 47.00586,9.00879 c 7.20703,0 11.61133,-4.00391 14.01367,-10.25 L 593.97754,142 h 13.13281 V 97.236328 h -13.97363 v 25.544922 c 0,5.20508 -3.08301,8.28809 -7.64746,8.28809 -4.56446,0 -7.28711,-3.00293 -7.28711,-8.04786 V 97.236328 h -13.97363 v 28.507812 c 0,10.12988 6.12597,16.81641 15.53515,16.81641 z M 616.31934,142 h 13.97363 v -24.42383 c 0,-5.36523 3.80371,-8.96875 8.96875,-8.96875 1.68164,0 4.2041,0.28028 5.52539,0.72071 V 97.15625 c -1.16113,-0.280273 -2.64258,-0.480469 -3.96387,-0.480469 -4.9248,0 -8.84863,2.842774 -10.45019,8.728519 h -0.48047 v -8.167972 h -13.57324 z m 45.36425,0.80078 c 6.20606,0 10.53028,-2.48242 12.97266,-7.08691 h 0.36035 V 142 h 13.13281 v -30.38965 c 0,-9.60937 -8.76855,-14.934569 -19.89941,-14.934569 -11.21094,0 -18.25781,5.245119 -20.01953,12.892579 l 12.65234,1.6416 c 0.76074,-2.80273 3.36328,-4.60449 7.24707,-4.60449 3.80371,0 6.08594,1.76172 6.08594,4.84473 v 0.16015 c 0,2.7627 -3.04297,3.32324 -10.61035,3.96387 -9.04883,0.76074 -16.65625,4.08398 -16.65625,14.01367 0,8.84863 6.12598,13.21289 14.73437,13.21289 z m 4.24414,-9.24902 c -3.36328,0 -5.76562,-1.60156 -5.76562,-4.60449 0,-2.96289 2.32226,-4.72461 6.44629,-5.3252 2.60254,-0.40039 6.12597,-1.00098 7.72754,-1.8418 v 4.28418 c 0,4.4043 -3.72364,7.48731 -8.40821,7.48731 z m 45.44434,-17.09668 c 0,-5.20508 3.08301,-8.28809 7.64746,-8.28809 4.56445,0 7.28711,3.00293 7.28711,8.04785 V 142 h 13.97363 v -28.50781 c 0,-10.12989 -6.12597,-16.816409 -15.49511,-16.816409 -7.24707,0 -11.65137,4.003909 -14.01368,10.209959 l -0.24023,-9.649412 H 697.39844 V 142 h 13.97363 z m 62.26074,-19.218752 h -8.04785 V 86.585937 h -13.97363 v 10.650391 h -5.92578 v 10.370122 h 5.92578 v 21.9414 c 0,8.52832 5.00488,13.09277 14.49414,13.09277 2.64258,0 5.60547,-0.28027 8.72851,-1.16113 l -1.80175,-10.16992 c -0.76075,0.2002 -2.92286,0.48047 -3.88379,0.48047 -2.52246,0 -3.56348,-1.12109 -3.56348,-3.4834 v -20.70019 h 8.04785 z"
     id="text6"
     style="font-weight:800;font-size:82px;font-family:Inter, Arial, sans-serif;fill:#f97316"
     aria-label="Restaurant" />
  <path
     d="m 857.66699,142.80078 c 14.77442,0 23.58301,-6.7666 23.58301,-18.09765 0,-9.5293 -6.68652,-15.29493 -18.21777,-17.81739 l -5.16504,-1.20117 c -5.3252,-1.20117 -8.8086,-2.96289 -8.8086,-6.646484 0,-3.323242 2.92286,-5.765625 8.56836,-5.765625 5.68555,0 8.84864,2.522461 9.24903,6.846679 h 13.57324 c -0.16016,-11.050781 -8.96875,-18.578124 -22.78223,-18.578124 -13.5332,0 -23.22265,7.407226 -23.22265,18.458007 0,8.968747 6.24609,14.133787 16.53613,16.496097 l 6.32617,1.48144 c 6.52637,1.48145 9.64941,3.28321 9.64941,6.68653 0,3.80371 -3.60351,6.40625 -9.44921,6.40625 -6.44629,0 -10.73047,-2.96289 -11.05079,-8.76856 h -13.57324 c 0.24024,13.77344 9.84961,20.5 24.78418,20.5 z m 51.85059,0.04 c 11.53125,0 19.25879,-6.20605 20.66015,-16.21582 l -12.89257,-2.08203 c -0.84082,4.84473 -3.4834,7.60742 -7.60743,7.60742 -5.36523,0 -8.4082,-4.76465 -8.4082,-12.45215 0,-7.72754 3.04297,-12.33203 8.4082,-12.33203 4.12403,0 6.68653,2.68262 7.56739,7.36719 l 12.89258,-2.16211 c -1.40137,-9.72949 -9.20899,-15.895509 -20.62012,-15.895509 -14.01367,0 -22.50196,9.289059 -22.50196,23.102539 0,13.77344 8.48829,23.0625 22.50196,23.0625 z m 48.80762,0 c 13.97363,0 22.46191,-9.28906 22.46191,-23.0625 0,-13.81348 -8.48828,-23.102539 -22.46191,-23.102539 -14.01368,0 -22.50196,9.289059 -22.50196,23.102539 0,13.77344 8.48828,23.0625 22.50196,23.0625 z m 0,-10.69043 c -5.36524,0 -8.24805,-5.00488 -8.24805,-12.45215 0,-7.4873 2.88281,-12.33203 8.24805,-12.33203 5.36523,0 8.24804,4.84473 8.24804,12.33203 0,7.44727 -2.88281,12.45215 -8.24804,12.45215 z M 988.31445,142 h 13.97365 v -24.42383 c 0,-5.36523 3.8037,-8.96875 8.9687,-8.96875 1.6817,0 4.2041,0.28028 5.5254,0.72071 V 97.15625 c -1.1611,-0.280273 -2.6426,-0.480469 -3.9638,-0.480469 -4.9248,0 -8.8487,2.842774 -10.4502,8.728519 h -0.4805 v -8.167972 h -13.57325 z m 53.01175,0.84082 c 10.8506,0 18.1777,-4.9248 20.4199,-12.69238 l -12.4522,-2.04199 c -1.121,3.00292 -3.9638,4.60449 -7.7275,4.60449 -5.2851,0 -8.8486,-3.20313 -9.0889,-9.68946 h 29.9092 v -3.52343 c 0,-14.77442 -9.0088,-22.822269 -21.581,-22.822269 -13.4532,0 -22.0616,9.289059 -22.0616,23.102539 0,14.33398 8.5284,23.0625 22.5821,23.0625 z m -8.7686,-27.94727 c 0.5205,-4.9248 3.4434,-8.08789 8.3682,-8.08789 4.8847,0 7.6474,3.00293 8.208,8.08789 z"
     id="text7"
     style="font-weight:800;font-size:82px;font-family:Inter, Arial, sans-serif;fill:#0f172a"
     aria-label="Score" />
</svg>
